<mxfile host="app.diagrams.net" modified="2023-05-24T16:15:40.840Z" agent="Mozilla/5.0 (Windows NT 10.0; Win64; x64) AppleWebKit/537.36 (KHTML, like Gecko) Chrome/113.0.0.0 Safari/537.36" etag="eb21QbmNhtAkgWfrrUk9" version="21.3.2" type="github">
  <diagram id="C5RBs43oDa-KdzZeNtuy" name="Page-1">
    <mxGraphModel dx="703" dy="438" grid="1" gridSize="10" guides="1" tooltips="1" connect="1" arrows="1" fold="1" page="1" pageScale="1" pageWidth="827" pageHeight="1169" math="0" shadow="0">
      <root>
        <mxCell id="WIyWlLk6GJQsqaUBKTNV-0" />
        <mxCell id="WIyWlLk6GJQsqaUBKTNV-1" parent="WIyWlLk6GJQsqaUBKTNV-0" />
        <mxCell id="xTqRqaEfE7LIYwTqel3B-37" value="&lt;i&gt;TradeDb&lt;/i&gt;" style="swimlane;fontStyle=1;align=center;verticalAlign=top;childLayout=stackLayout;horizontal=1;startSize=26;horizontalStack=0;resizeParent=1;resizeParentMax=0;resizeLast=0;collapsible=1;marginBottom=0;whiteSpace=wrap;html=1;" vertex="1" parent="WIyWlLk6GJQsqaUBKTNV-1">
          <mxGeometry x="70" y="350" width="190" height="61" as="geometry" />
        </mxCell>
        <mxCell id="xTqRqaEfE7LIYwTqel3B-42" value="&lt;i&gt;TradeAPI&lt;/i&gt;" style="swimlane;fontStyle=1;align=center;verticalAlign=top;childLayout=stackLayout;horizontal=1;startSize=26;horizontalStack=0;resizeParent=1;resizeParentMax=0;resizeLast=0;collapsible=1;marginBottom=0;whiteSpace=wrap;html=1;" vertex="1" parent="WIyWlLk6GJQsqaUBKTNV-1">
          <mxGeometry x="290" y="350" width="190" height="60" as="geometry" />
        </mxCell>
        <mxCell id="xTqRqaEfE7LIYwTqel3B-65" value="Extends" style="endArrow=block;endSize=16;endFill=0;html=1;rounded=0;" edge="1" parent="WIyWlLk6GJQsqaUBKTNV-1" source="xTqRqaEfE7LIYwTqel3B-37" target="xTqRqaEfE7LIYwTqel3B-46">
          <mxGeometry width="160" relative="1" as="geometry">
            <mxPoint x="160" y="260" as="sourcePoint" />
            <mxPoint x="208.54166666666652" y="301.9999999999999" as="targetPoint" />
          </mxGeometry>
        </mxCell>
        <mxCell id="xTqRqaEfE7LIYwTqel3B-66" value="Extends" style="endArrow=block;endSize=16;endFill=0;html=1;rounded=0;" edge="1" parent="WIyWlLk6GJQsqaUBKTNV-1" source="xTqRqaEfE7LIYwTqel3B-42" target="xTqRqaEfE7LIYwTqel3B-46">
          <mxGeometry width="160" relative="1" as="geometry">
            <mxPoint x="202" y="360" as="sourcePoint" />
            <mxPoint x="253.67346938775495" y="301.9999999999999" as="targetPoint" />
          </mxGeometry>
        </mxCell>
        <mxCell id="xTqRqaEfE7LIYwTqel3B-78" value="" style="group" vertex="1" connectable="0" parent="WIyWlLk6GJQsqaUBKTNV-1">
          <mxGeometry x="174" y="120" width="550" height="156" as="geometry" />
        </mxCell>
        <mxCell id="xTqRqaEfE7LIYwTqel3B-46" value="&lt;i&gt;Singleton&lt;/i&gt;" style="swimlane;fontStyle=1;align=center;verticalAlign=top;childLayout=stackLayout;horizontal=1;startSize=26;horizontalStack=0;resizeParent=1;resizeParentMax=0;resizeLast=0;collapsible=1;marginBottom=0;whiteSpace=wrap;html=1;" vertex="1" parent="xTqRqaEfE7LIYwTqel3B-78">
          <mxGeometry width="200" height="112" as="geometry" />
        </mxCell>
        <mxCell id="xTqRqaEfE7LIYwTqel3B-47" value="&lt;u&gt;# instances: Map&amp;lt;str, Singleton&amp;gt;&lt;/u&gt;" style="text;strokeColor=none;fillColor=none;align=left;verticalAlign=top;spacingLeft=4;spacingRight=4;overflow=hidden;rotatable=0;points=[[0,0.5],[1,0.5]];portConstraint=eastwest;whiteSpace=wrap;html=1;" vertex="1" parent="xTqRqaEfE7LIYwTqel3B-46">
          <mxGeometry y="26" width="200" height="26" as="geometry" />
        </mxCell>
        <mxCell id="xTqRqaEfE7LIYwTqel3B-48" value="" style="line;strokeWidth=1;fillColor=none;align=left;verticalAlign=middle;spacingTop=-1;spacingLeft=3;spacingRight=3;rotatable=0;labelPosition=right;points=[];portConstraint=eastwest;strokeColor=inherit;" vertex="1" parent="xTqRqaEfE7LIYwTqel3B-46">
          <mxGeometry y="52" width="200" height="8" as="geometry" />
        </mxCell>
        <mxCell id="xTqRqaEfE7LIYwTqel3B-76" value="&lt;i&gt;- Singleton(): void&lt;/i&gt;" style="text;strokeColor=none;fillColor=none;align=left;verticalAlign=top;spacingLeft=4;spacingRight=4;overflow=hidden;rotatable=0;points=[[0,0.5],[1,0.5]];portConstraint=eastwest;whiteSpace=wrap;html=1;" vertex="1" parent="xTqRqaEfE7LIYwTqel3B-46">
          <mxGeometry y="60" width="200" height="26" as="geometry" />
        </mxCell>
        <mxCell id="xTqRqaEfE7LIYwTqel3B-77" value="+ getInstance(): Singleton" style="text;strokeColor=none;fillColor=none;align=left;verticalAlign=top;spacingLeft=4;spacingRight=4;overflow=hidden;rotatable=0;points=[[0,0.5],[1,0.5]];portConstraint=eastwest;whiteSpace=wrap;html=1;" vertex="1" parent="xTqRqaEfE7LIYwTqel3B-46">
          <mxGeometry y="86" width="200" height="26" as="geometry" />
        </mxCell>
        <mxCell id="xTqRqaEfE7LIYwTqel3B-52" value="&lt;blockquote style=&quot;margin: 0 0 0 40px; border: none; padding: 0px;&quot;&gt;&lt;div style=&quot;&quot;&gt;&lt;span style=&quot;background-color: initial;&quot;&gt;if (this.instances[this.className])&lt;/span&gt;&lt;/div&gt;&lt;span style=&quot;&quot;&gt;&lt;span style=&quot;&quot;&gt;&lt;span style=&quot;white-space: pre;&quot;&gt;&amp;nbsp;&amp;nbsp;&amp;nbsp;&amp;nbsp;&lt;/span&gt;&lt;/span&gt;return this.instances[this.className]&lt;br&gt;&lt;/span&gt;&lt;span style=&quot;&quot;&gt;else&lt;br&gt;&lt;/span&gt;&lt;span style=&quot;&quot;&gt;&lt;span style=&quot;&quot;&gt;&lt;span style=&quot;white-space: pre;&quot;&gt;&amp;nbsp;&amp;nbsp;&amp;nbsp;&amp;nbsp;&lt;/span&gt;&lt;/span&gt;this.instances[this.className] = this()&lt;/span&gt;&lt;/blockquote&gt;&lt;blockquote style=&quot;margin: 0 0 0 40px; border: none; padding: 0px;&quot;&gt;&lt;br&gt;&lt;/blockquote&gt;&lt;blockquote style=&quot;margin: 0 0 0 40px; border: none; padding: 0px;&quot;&gt;return this.instances[this.className]&lt;span style=&quot;&quot;&gt;&lt;br&gt;&lt;/span&gt;&lt;/blockquote&gt;" style="html=1;whiteSpace=wrap;align=left;" vertex="1" parent="xTqRqaEfE7LIYwTqel3B-78">
          <mxGeometry x="250" y="36" width="300" height="120" as="geometry" />
        </mxCell>
        <mxCell id="xTqRqaEfE7LIYwTqel3B-54" value="" style="endArrow=open;endFill=1;endSize=12;html=1;rounded=0;" edge="1" parent="xTqRqaEfE7LIYwTqel3B-78" source="xTqRqaEfE7LIYwTqel3B-77" target="xTqRqaEfE7LIYwTqel3B-52">
          <mxGeometry width="160" relative="1" as="geometry">
            <mxPoint x="180" y="87" as="sourcePoint" />
            <mxPoint x="340" y="87" as="targetPoint" />
          </mxGeometry>
        </mxCell>
      </root>
    </mxGraphModel>
  </diagram>
</mxfile>
